<mxfile host="app.diagrams.net" modified="2024-05-22T07:39:09.791Z" agent="Mozilla/5.0 (X11; Linux x86_64; rv:126.0) Gecko/20100101 Firefox/126.0" version="24.4.2" etag="5Ox3yRPeS07qAp-RBEGT" type="github">
  <diagram name="Page-1" id="0g_wWTmyQGgwD8oNdjpy">
    <mxGraphModel>
      <root>
        <mxCell id="0" />
        <mxCell id="1" parent="0" />
      </root>
    </mxGraphModel>
  </diagram>
</mxfile>
